<svg width="14" height="11" viewBox="0 0 14 11" fill="none" xmlns="http://www.w3.org/2000/svg">
<path d="M4.32184 8.15175L1.42224 5.3922C1.266 5.24351 1.05409 5.15997 0.83313 5.15997C0.61217 5.15997 0.40026 5.24351 0.244018 5.3922C0.0877759 5.5409 0 5.74257 0 5.95286C0 6.05698 0.0215497 6.16009 0.0634184 6.25628C0.105287 6.35248 0.166655 6.43989 0.244018 6.51352L3.73691 9.8377C4.0628 10.1479 4.58924 10.1479 4.91513 9.8377L13.756 1.42386C13.9122 1.27516 14 1.07349 14 0.863202C14 0.652915 13.9122 0.45124 13.756 0.302545C13.5997 0.153849 13.3878 0.0703125 13.1669 0.0703125C12.9459 0.0703125 12.734 0.153849 12.5778 0.302545L4.32184 8.15175Z" fill="white"/>
</svg>
