<svg width="316" height="56" viewBox="0 0 316 56" fill="none" xmlns="http://www.w3.org/2000/svg">
<path d="M290.48 35.0771C290.404 35.585 290.468 36.0674 290.671 36.5244C290.874 36.9561 291.179 37.2988 291.585 37.5527C292.017 37.8066 292.474 37.9336 292.956 37.9336C293.464 37.9336 293.959 37.8066 294.441 37.5527C294.924 37.2988 295.317 36.9561 295.622 36.5244C295.927 36.0674 296.117 35.585 296.193 35.0771L298.136 19.9951C298.212 19.4873 298.148 19.0049 297.945 18.5479C297.768 18.0908 297.463 17.748 297.031 17.5195C296.6 17.2656 296.143 17.1387 295.66 17.1387C295.178 17.1387 294.695 17.2656 294.213 17.5195C293.73 17.748 293.324 18.0908 292.994 18.5479C292.689 19.0049 292.499 19.4873 292.423 19.9951L290.48 35.0771ZM275.284 20.0332C275.741 16.5293 277.074 13.1777 279.283 9.97852C281.492 6.75391 284.298 4.29102 287.7 2.58984C291.128 0.863281 294.518 0 297.869 0C301.246 0 304.407 0.863281 307.353 2.58984C310.323 4.29102 312.494 6.75391 313.865 9.97852C315.262 13.1777 315.731 16.5293 315.274 20.0332L313.332 35.1152C312.875 38.5684 311.567 41.8818 309.409 45.0557C307.251 48.2041 304.471 50.667 301.068 52.4443C297.666 54.1963 294.213 55.0723 290.709 55.0723C287.281 55.0723 284.082 54.1963 281.111 52.4443C278.166 50.667 276.02 48.2041 274.675 45.0557C273.329 41.8818 272.885 38.5684 273.342 35.1152L275.284 20.0332Z" fill="currentColor"/>
<path d="M248.207 35.0771C248.131 35.585 248.194 36.0674 248.397 36.5244C248.601 36.9561 248.905 37.2988 249.311 37.5527C249.743 37.8066 250.2 37.9336 250.683 37.9336C251.19 37.9336 251.686 37.8066 252.168 37.5527C252.65 37.2988 253.044 36.9561 253.349 36.5244C253.653 36.0674 253.844 35.585 253.92 35.0771L255.862 19.9951C255.938 19.4873 255.875 19.0049 255.672 18.5479C255.494 18.0908 255.189 17.748 254.758 17.5195C254.326 17.2656 253.869 17.1387 253.387 17.1387C252.904 17.1387 252.422 17.2656 251.939 17.5195C251.457 17.748 251.051 18.0908 250.721 18.5479C250.416 19.0049 250.226 19.4873 250.149 19.9951L248.207 35.0771ZM233.011 20.0332C233.468 16.5293 234.801 13.1777 237.01 9.97852C239.219 6.75391 242.024 4.29102 245.427 2.58984C248.854 0.863281 252.244 0 255.596 0C258.973 0 262.134 0.863281 265.079 2.58984C268.05 4.29102 270.221 6.75391 271.592 9.97852C272.988 13.1777 273.458 16.5293 273.001 20.0332L271.059 35.1152C270.602 38.5684 269.294 41.8818 267.136 45.0557C264.978 48.2041 262.197 50.667 258.795 52.4443C255.393 54.1963 251.939 55.0723 248.436 55.0723C245.008 55.0723 241.809 54.1963 238.838 52.4443C235.893 50.667 233.747 48.2041 232.401 45.0557C231.056 41.8818 230.611 38.5684 231.068 35.1152L233.011 20.0332Z" fill="currentColor"/>
<path d="M192.676 20.0332C193.107 16.5293 194.428 13.1777 196.637 9.97852C198.846 6.75391 201.651 4.29102 205.054 2.58984C208.481 0.863281 211.871 0 215.223 0C218.6 0 221.761 0.863281 224.706 2.58984C227.677 4.29102 229.86 6.74121 231.257 9.94043C231.536 10.5752 231.777 11.21 231.981 11.8447C232.209 12.4287 232.349 13.0254 232.399 13.6348C232.425 13.6602 232.438 13.6855 232.438 13.7109C232.539 14.3965 232.539 15.1074 232.438 15.8438C232.234 17.3418 231.663 18.7637 230.724 20.1094C229.81 21.4551 228.629 22.5088 227.182 23.2705C225.734 24.0322 224.262 24.4131 222.764 24.4131C221.291 24.4131 219.907 24.0322 218.612 23.2705C217.343 22.5088 216.429 21.4551 215.87 20.1094C215.692 19.7285 215.54 19.2842 215.413 18.7764C215.388 18.7002 215.362 18.624 215.337 18.5479C215.134 18.0908 214.816 17.748 214.385 17.5195C213.953 17.2656 213.496 17.1387 213.014 17.1387C212.531 17.1387 212.049 17.2656 211.566 17.5195C211.084 17.748 210.678 18.0908 210.348 18.5479C210.043 19.0049 209.865 19.5 209.814 20.0332L207.834 35.0771C207.783 35.585 207.847 36.0674 208.024 36.5244C208.228 36.9814 208.545 37.3242 208.977 37.5527C209.129 37.6543 209.294 37.7432 209.472 37.8193C209.497 37.4893 209.523 37.1592 209.548 36.8291C209.751 35.3311 210.31 33.9092 211.224 32.5635C212.163 31.1924 213.356 30.1387 214.804 29.4023C216.276 28.6406 217.749 28.2598 219.222 28.2598H222.992C224.49 28.2598 225.874 28.6406 227.144 29.4023C228.413 30.1387 229.327 31.1924 229.886 32.5635C230.47 33.9092 230.66 35.3311 230.457 36.8291L229.2 46.5029C229.023 48.001 228.451 49.4355 227.486 50.8066C226.522 52.1777 225.315 53.2314 223.868 53.9678C222.421 54.7041 220.974 55.0723 219.526 55.0723C218.079 55.0723 216.733 54.7041 215.489 53.9678C215.388 53.917 215.286 53.8662 215.185 53.8154C212.798 54.6533 210.424 55.0723 208.063 55.0723C204.711 55.0723 201.55 54.2217 198.579 52.5205C195.634 50.7939 193.476 48.3184 192.105 45.0938C190.759 41.9707 190.276 38.708 190.657 35.3057L192.676 20.0332Z" fill="currentColor"/>
<path d="M181.441 37.9336C182.889 37.9336 184.234 38.3018 185.479 39.0381C186.748 39.7744 187.675 40.8281 188.259 42.1992C188.868 43.5703 189.084 45.0049 188.906 46.5029C188.703 48.001 188.132 49.4229 187.192 50.7686C186.278 52.1143 185.085 53.168 183.612 53.9297C182.165 54.6914 180.692 55.0723 179.194 55.0723H156.19C154.819 55.0469 153.524 54.6787 152.306 53.9678C151.036 53.2314 150.109 52.1777 149.525 50.8066C148.916 49.4355 148.713 48.001 148.916 46.5029L153.829 8.56934C154.032 7.07129 154.604 5.63672 155.543 4.26562C156.508 2.89453 157.727 1.84082 159.199 1.10449C160.57 0.393555 161.954 0.0253906 163.351 0H185.593C187.091 0 188.475 0.380859 189.744 1.14258C191.014 1.87891 191.928 2.93262 192.486 4.30371C193.07 5.64941 193.261 7.07129 193.058 8.56934C192.854 10.0674 192.271 11.502 191.306 12.873C190.366 14.2441 189.173 15.2979 187.726 16.0342C186.278 16.7705 184.831 17.1387 183.384 17.1387H170.435C170.333 17.1387 170.231 17.1641 170.13 17.2148C170.028 17.2656 169.939 17.3418 169.863 17.4434C169.812 17.5195 169.787 17.6084 169.787 17.71L169.711 18.3955C169.686 18.4971 169.686 18.5986 169.711 18.7002C169.762 18.7764 169.825 18.8398 169.901 18.8906C170.003 18.9414 170.104 18.9668 170.206 18.9668H178.204C179.702 18.9668 181.073 19.3477 182.317 20.1094C183.587 20.8457 184.501 21.8994 185.06 23.2705C185.644 24.6162 185.834 26.0381 185.631 27.5361C185.453 29.0342 184.882 30.4688 183.917 31.8398C182.978 33.2109 181.771 34.2646 180.299 35.001C178.852 35.7373 177.404 36.1055 175.957 36.1055H167.959C167.857 36.1055 167.756 36.1309 167.654 36.1816C167.578 36.2324 167.502 36.3086 167.426 36.4102C167.375 36.4863 167.337 36.5752 167.312 36.6768L167.235 37.3623C167.21 37.4639 167.21 37.5654 167.235 37.667C167.286 37.7432 167.35 37.8066 167.426 37.8574C167.527 37.9082 167.629 37.9336 167.73 37.9336H181.441Z" fill="currentColor"/>
<path d="M110.069 19.9951C110.145 19.4873 110.082 19.0049 109.878 18.5479C109.675 18.0908 109.358 17.748 108.926 17.5195C108.52 17.2656 108.076 17.1387 107.593 17.1387C107.111 17.1387 106.616 17.2656 106.108 17.5195C105.626 17.748 105.232 18.0908 104.927 18.5479C104.623 19.0049 104.432 19.4873 104.356 19.9951L100.928 46.5029C100.725 48.001 100.154 49.4229 99.2144 50.7686C98.3003 52.1143 97.1069 53.168 95.6343 53.9297C94.187 54.6914 92.7144 55.0723 91.2163 55.0723C89.7437 55.0723 88.3726 54.6914 87.103 53.9297C85.8335 53.168 84.9194 52.1143 84.3609 50.7686C83.7769 49.4229 83.5864 48.001 83.7896 46.5029L88.7027 8.56934C88.9058 7.07129 89.4771 5.63672 90.4165 4.26562C91.3814 2.89453 92.5874 1.84082 94.0347 1.10449C95.4819 0.368164 96.9292 0 98.3765 0H109.84C113.192 0 116.366 0.850586 119.362 2.55176C119.844 2.85645 120.327 3.18652 120.809 3.54199C121.368 3.18652 121.952 2.85645 122.561 2.55176C125.938 0.850586 129.315 0 132.692 0C136.043 0 139.205 0.863281 142.175 2.58984C145.146 4.29102 147.317 6.74121 148.688 9.94043C150.008 13.0889 150.478 16.3643 150.097 19.7666L146.631 46.5029C146.428 48.001 145.857 49.4229 144.917 50.7686C144.003 52.1143 142.81 53.168 141.337 53.9297C139.89 54.6914 138.417 55.0723 136.919 55.0723C135.447 55.0723 134.076 54.6914 132.806 53.9297C131.537 53.168 130.61 52.1143 130.026 50.7686C129.467 49.4229 129.29 48.001 129.493 46.5029L132.92 19.9951C132.997 19.4873 132.933 19.0049 132.73 18.5479C132.527 18.0908 132.209 17.748 131.778 17.5195C131.372 17.2656 130.927 17.1387 130.445 17.1387C129.962 17.1387 129.467 17.2656 128.959 17.5195C128.477 17.748 128.084 18.0908 127.779 18.5479C127.474 19.0049 127.284 19.4873 127.208 19.9951L123.78 46.5029C123.577 48.001 123.005 49.4229 122.066 50.7686C121.152 52.1143 119.959 53.168 118.486 53.9297C117.039 54.6914 115.566 55.0723 114.068 55.0723C112.595 55.0723 111.224 54.6914 109.955 53.9297C108.685 53.168 107.758 52.1143 107.174 50.7686C106.616 49.4229 106.438 48.001 106.641 46.5029L110.069 19.9951Z" fill="currentColor"/>
<path d="M67.7915 19.9951C67.8677 19.4873 67.8042 19.0176 67.6011 18.5859C67.398 18.1289 67.0933 17.7734 66.687 17.5195C66.2808 17.2656 65.8237 17.1387 65.3159 17.1387C64.8081 17.1387 64.3003 17.2656 63.7925 17.5195C63.3101 17.7734 62.9165 18.1289 62.6118 18.5859C62.3325 19.043 62.1548 19.5127 62.0786 19.9951L61.3169 25.8984C61.2915 26 61.3042 26.1016 61.355 26.2031C61.4058 26.2793 61.4693 26.3428 61.5454 26.3936C61.6216 26.4443 61.7105 26.4697 61.812 26.4697H66.3823C66.4839 26.4697 66.5855 26.4443 66.687 26.3936C66.7886 26.3428 66.8648 26.2793 66.9155 26.2031C66.9663 26.1016 67.0044 26 67.0298 25.8984L67.7915 19.9951ZM64.3638 46.5029L65.1636 40.3711C65.1636 40.2695 65.1382 40.1807 65.0874 40.1045C65.062 40.0029 65.0112 39.9268 64.9351 39.876C64.8589 39.8252 64.77 39.7998 64.6685 39.7998H60.0982C59.9966 39.7998 59.895 39.8252 59.7935 39.876C59.6919 39.9268 59.603 40.0029 59.5269 40.1045C59.4761 40.1807 59.4507 40.2695 59.4507 40.3711L58.6509 46.5029C58.4478 48.001 57.8765 49.4229 56.937 50.7686C56.023 52.1143 54.8296 53.168 53.3569 53.9297C51.9097 54.6914 50.437 55.0723 48.939 55.0723C47.4663 55.0723 46.0952 54.6914 44.8257 53.9297C43.5562 53.168 42.6421 52.1143 42.0835 50.7686C41.4995 49.4229 41.3091 48.001 41.5122 46.5029L44.978 19.7666C45.4605 16.3643 46.7808 13.0889 48.939 9.94043C51.148 6.74121 53.9536 4.29102 57.356 2.58984C60.7583 0.863281 64.1353 0 67.4868 0C70.8638 0 74.0376 0.863281 77.0083 2.58984C79.979 4.29102 82.1499 6.74121 83.521 9.94043C84.8667 13.0889 85.3491 16.3643 84.9683 19.7666L81.5025 46.5029C81.2993 48.001 80.728 49.4229 79.7886 50.7686C78.8745 52.1143 77.6812 53.168 76.2085 53.9297C74.7612 54.6914 73.2886 55.0723 71.7905 55.0723C70.3179 55.0723 68.9468 54.6914 67.6773 53.9297C66.4077 53.168 65.481 52.1143 64.897 50.7686C64.3384 49.4229 64.1607 48.001 64.3638 46.5029Z" fill="currentColor"/>
<path d="M2.70317 20.0332C3.13481 16.5293 4.45512 13.1777 6.66411 9.97852C8.87309 6.75391 11.6788 4.29102 15.0811 2.58984C18.5088 0.863281 21.8985 0 25.25 0C28.627 0 31.7881 0.863281 34.7334 2.58984C37.7041 4.29102 39.8877 6.74121 41.2842 9.94043C41.5635 10.5752 41.8047 11.21 42.0079 11.8447C42.2364 12.4287 42.376 13.0254 42.4268 13.6348C42.4522 13.6602 42.4649 13.6855 42.4649 13.7109C42.5664 14.3965 42.5664 15.1074 42.4649 15.8438C42.2618 17.3418 41.6905 18.7637 40.751 20.1094C39.837 21.4551 38.6563 22.5088 37.209 23.2705C35.7618 24.0322 34.2891 24.4131 32.7911 24.4131C31.3184 24.4131 29.9346 24.0322 28.6397 23.2705C27.3702 22.5088 26.4561 21.4551 25.8975 20.1094C25.7198 19.7285 25.5674 19.2842 25.4405 18.7764C25.4151 18.7002 25.3897 18.624 25.3643 18.5479C25.1612 18.0908 24.8438 17.748 24.4122 17.5195C23.9805 17.2656 23.5235 17.1387 23.0411 17.1387C22.5586 17.1387 22.0762 17.2656 21.5938 17.5195C21.1114 17.748 20.7051 18.0908 20.375 18.5479C20.0704 19.0049 19.8926 19.5 19.8418 20.0332L17.8614 35.0771C17.8106 35.585 17.8741 36.0674 18.0518 36.5244C18.2549 36.9814 18.5723 37.3242 19.004 37.5527C19.1563 37.6543 19.3213 37.7432 19.4991 37.8193C19.5245 37.4893 19.5498 37.1592 19.5752 36.8291C19.7784 35.3311 20.337 33.9092 21.251 32.5635C22.1905 31.1924 23.3838 30.1387 24.8311 29.4023C26.3038 28.6406 27.7764 28.2598 29.2491 28.2598H33.0196C34.5176 28.2598 35.9014 28.6406 37.1709 29.4023C38.4405 30.1387 39.3545 31.1924 39.9131 32.5635C40.4971 33.9092 40.6875 35.3311 40.4844 36.8291L39.2276 46.5029C39.0498 48.001 38.4786 49.4355 37.5137 50.8066C36.5489 52.1777 35.3428 53.2314 33.8955 53.9678C32.4483 54.7041 31.001 55.0723 29.5538 55.0723C28.1065 55.0723 26.7608 54.7041 25.5166 53.9678C25.4151 53.917 25.3135 53.8662 25.212 53.8154C22.8252 54.6533 20.4512 55.0723 18.0899 55.0723C14.7383 55.0723 11.5772 54.2217 8.60649 52.5205C5.66118 50.7939 3.50297 48.3184 2.13188 45.0938C0.786176 41.9707 0.303754 38.708 0.684613 35.3057L2.70317 20.0332Z" fill="currentColor"/>
</svg>
